<svg width="32" height="32" viewBox="0 0 32 32" fill="none" xmlns="http://www.w3.org/2000/svg">
<path d="M26.2853 15.4292C26.2892 16.9376 25.9368 18.4256 25.2567 19.772C24.4504 21.3854 23.2107 22.7425 21.6767 23.6912C20.1426 24.6399 18.3747 25.1427 16.571 25.1434C15.0626 25.1474 13.5746 24.795 12.2282 24.1149L5.71387 26.2863L7.8853 19.772C7.20522 18.4256 6.85279 16.9376 6.85672 15.4292C6.85742 13.6255 7.36028 11.8576 8.30897 10.3235C9.25767 8.78945 10.6147 7.54981 12.2282 6.74345C13.5746 6.06337 15.0626 5.71094 16.571 5.71488H17.1424C19.5245 5.8463 21.7745 6.85175 23.4615 8.53871C25.1484 10.2257 26.1539 12.4756 26.2853 14.8577V15.4292Z" stroke="white" stroke-width="2" stroke-linecap="round" stroke-linejoin="round"/>
</svg>
